PathFileType	4	(X/Y/Z)	C:/Users/opensim2020/Desktop/walking_exp_matlab/subject06_walking14_straight_03.trc																																																																																																																																					
DataRate	CameraRate	NumFrames	NumMarkers	Units	OrigDataRate	OrigDataStartFrame	OrigNumFrames																																																																																																																																	
100	100	7	45	mm	100	2208	233																																																																																																																																	
Frame#	Time	LFHD			RFHD			LBHD			RBHD			C7			T10			CLAV			STRN			RBAK			LSHO			LUPA			LELB			LFRM			LWRA			LWRB			LFIN			RSHO			RUPA			RELB			RFRM			RWRA			RWRB			RFIN			LASI			RASI			LPSI			RPSI			LTHI			LKNE			LTIB			LANK			LHEE			LTOE			RTHI			RKNE			RTIB			RANK			RHEE			RTOE			*39			*40			*41			*42			*43			*44		
		X1	Y1	Z1	X2	Y2	Z2	X3	Y3	Z3	X4	Y4	Z4	X5	Y5	Z5	X6	Y6	Z6	X7	Y7	Z7	X8	Y8	Z8	X9	Y9	Z9	X10	Y10	Z10	X11	Y11	Z11	X12	Y12	Z12	X13	Y13	Z13	X14	Y14	Z14	X15	Y15	Z15	X16	Y16	Z16	X17	Y17	Z17	X18	Y18	Z18	X19	Y19	Z19	X20	Y20	Z20	X21	Y21	Z21	X22	Y22	Z22	X23	Y23	Z23	X24	Y24	Z24	X25	Y25	Z25	X26	Y26	Z26	X27	Y27	Z27	X28	Y28	Z28	X29	Y29	Z29	X30	Y30	Z30	X31	Y31	Z31	X32	Y32	Z32	X33	Y33	Z33	X34	Y34	Z34	X35	Y35	Z35	X36	Y36	Z36	X37	Y37	Z37	X38	Y38	Z38	X39	Y39	Z39	X40	Y40	Z40	X41	Y41	Z41	X42	Y42	Z42	X43	Y43	Z43	X44	Y44	Z44	X45	Y45	Z45
																																																																																																																																								
1	0	-927.70819	1655.18848	1326.22729	-921.89038	1647.99048	1457.48645	-1060.42676	1599.10242	1332.0033	-1053.7373	1597.21399	1461.10876	-1058.45898	1446.89893	1394.84595	-1107.34009	1121.68762	1423.35742	-950.5705	1365.74255	1391.80164	-918.375	1188.99634	1393.99512	-1129.49329	1286.10413	1491.42529	-1015.32745	1395.5802	1232.50037	-1062.9895	1198.65247	1169.31909	-1094.94104	1089.89709	1165.0824	-1103.57532	938.84955	1148.20605	-1067.06628	815.37994	1191.90149	-1127.35144	822.12866	1156.40076	-1104.60364	733.8006	1159.13733	-981.08325	1408.1416	1551.47498	-1013.6347	1219.41748	1656.91699	-1006.97308	1097.06946	1670.96716	-977.62903	980.20319	1681.00269	-906.88312	853.50879	1631.09827	-953.41016	844.44427	1679.62683	-905.55334	775.53442	1670.51404	-931.08783	963.77917	1305.80347	-934.79285	956.09265	1524.06519	-1089.37024	991.04388	1335.32739	-1084.27905	983.04291	1502.57471	-980.74835	656.09692	1236.30798	-968.09119	492.01965	1256.53467	-967.37585	236.16896	1268.31909	-942.09546	67.25928	1315.35754	-979.03943	53.42008	1362.68005	-794.97711	42.04338	1315.10046	-1003.34784	616.91998	1588.49109	-1004.013	489.31464	1580.82263	-1203.95703	321.58975	1576.69055	-1352.26306	211.79584	1537.94214	-1387.37	229.61147	1489.4502	-1316.47253	57.17961	1548.58142	-1026.38733	1694.36633	1387.59473	NaN	NaN	NaN	NaN	NaN	NaN	NaN	NaN	NaN	NaN	NaN	NaN	NaN	NaN	NaN
2	0.01	-918.88715	1656.08557	1325.02869	-914.06848	1648.89453	1456.30969	-1051.84717	1599.3717	1330.53503	-1045.40576	1597.52161	1459.67285	-1049.58289	1447.35266	1393.16833	-1098.22729	1121.64221	1421.17847	-941.57098	1366.22693	1390.81262	-909.33044	1189.35425	1392.84253	-1121.06677	1285.89709	1488.62964	-1005.20819	1396.04248	1230.96362	-1051.01233	1198.68066	1166.61182	-1081.32251	1089.34973	1162.31201	-1086.94727	938.14911	1145.33459	-1044.6073	816.58777	1187.16418	-1108.5	820.66559	1153.68347	-1084.13232	733.16864	1156.03223	-973.09344	1408.22522	1550.53418	-1007.41827	1219.52405	1655.89209	-1001.42377	1097.08752	1670.02795	-973.57129	979.95508	1680.14575	-905.08954	852.11371	1630.95947	-951.19519	843.8725	1679.15649	-904.50494	774.09467	1669.65088	-921.75861	963.58453	1304.67468	-925.53735	956.56512	1523.57043	-1080.54578	991.17572	1333.65088	-1075.7876	982.80591	1501.15125	-973.43677	656.45789	1235.25659	-962.51801	492.05978	1255.66809	-964.59338	236.2184	1267.6748	-941.70117	67.37201	1315.42212	-978.81165	53.54915	1362.68359	-794.68909	41.63511	1315.45508	-989.12885	616.84094	1588.29297	-986.21533	489.41794	1580.73608	-1185.22864	323.49609	1576.16968	-1335.63232	216.92015	1536.04102	-1369.39771	235.60406	1486.81726	-1305.42358	60.99451	1548.23816	-1018.27124	1694.78748	1386.1842	NaN	NaN	NaN	NaN	NaN	NaN	NaN	NaN	NaN	NaN	NaN	NaN	NaN	NaN	NaN
3	0.02	-910.82739	1656.57874	1323.96838	-906.04224	1649.54114	1455.39502	-1043.31299	1599.62524	1329.2052	-1037.09644	1597.74695	1458.3252	-1040.68176	1447.84045	1391.56873	-1089.24817	1121.66101	1419.13	-932.67194	1366.55994	1389.87451	-900.38464	1189.64795	1391.8219	-1112.74951	1285.70508	1485.74548	-995.04602	1396.26526	1229.51563	-1038.04736	1198.31177	1164.55896	-1067.34241	1088.61389	1159.57971	-1070.55933	937.42188	1142.19531	-1027.32886	815.80035	1185.54919	-1089.75293	819.76569	1150.59094	-1063.23096	732.57526	1152.83875	-965.20026	1408.20068	1549.72754	-1001.6012	1219.41052	1654.76514	-996.15161	1096.9397	1669.1073	-969.81256	979.47223	1679.28796	-902.95386	850.59698	1630.12207	-949.39099	843.05646	1678.74487	-903.75873	772.49744	1669.15149	-912.44812	963.57727	1303.78101	-917.35565	956.60712	1522.64966	-1071.43213	991.42737	1332.3335	-1067.43115	982.62823	1499.88159	-965.95599	656.92529	1234.50574	-957.32764	492.27985	1254.80847	-962.41962	236.27975	1266.6571	-941.30884	67.3457	1315.51624	-978.75616	53.6789	1362.62549	-794.3894	41.35117	1315.7417	-975.30664	616.93311	1588.099	-968.87482	489.85995	1580.73425	-1166.65051	325.09564	1575.55066	-1318.90015	221.43054	1533.87378	-1351.93591	239.90912	1484.06311	-1290.08228	65.65793	1548.85364	-1010.15991	1695.15417	1384.85303	NaN	NaN	NaN	NaN	NaN	NaN	NaN	NaN	NaN	NaN	NaN	NaN	NaN	NaN	NaN
4	0.03	-902.0271	1657.33142	1322.95129	-897.763	1650.28906	1454.50305	-1034.6499	1599.78723	1327.91846	-1028.72156	1597.98083	1457.05261	-1031.82178	1448.33618	1389.995	-1080.39282	1121.81702	1417.2063	-923.98584	1366.89368	1389.00781	-891.79846	1189.9104	1390.84924	-1104.44543	1285.56323	1482.90247	-984.81757	1396.35181	1228.13416	-1025.22266	1197.83594	1162.32092	-1053.27588	1087.73828	1156.73071	-1053.21472	936.51855	1139.27649	-1008.40753	815.61041	1182.88135	-1069.66479	818.18024	1147.85229	-1042.03552	732.06744	1149.55237	-957.22363	1408.08069	1549.05469	-995.93073	1219.21399	1653.46082	-991.74036	1096.77393	1668.47949	-966.41376	978.84967	1678.40479	-901.41046	848.89917	1630.01392	-948.06506	842.10059	1678.34937	-903.54474	770.74402	1668.86877	-903.10236	963.85553	1303.11267	-909.33746	956.76117	1521.85986	-1062.24683	991.74548	1331.35657	-1059.07739	982.47205	1498.86963	-958.67145	657.43109	1234.13171	-952.50885	492.61426	1254.09631	-960.34296	236.51344	1266.03015	-941.12744	67.40777	1315.54248	-978.74518	53.62764	1362.50647	-794.20135	41.10843	1315.98975	-961.93848	617.33032	1587.83972	-951.84088	490.60309	1580.90137	-1148.62048	326.60156	1574.77063	-1301.2561	224.83774	1531.37305	-1334.62488	241.84863	1481.30432	-1270.28589	69.99577	1549.16724	-1001.90747	1695.42346	1383.63403	NaN	NaN	NaN	NaN	NaN	NaN	NaN	NaN	NaN	NaN	NaN	NaN	NaN	NaN	NaN
5	0.04	-893.50372	1657.9231	1322.04468	-889.53638	1650.81042	1453.47485	-1026.02759	1600.01404	1326.71716	-1020.32172	1598.29016	1455.92126	-1023.03729	1448.86572	1388.52478	-1071.76086	1122.21289	1415.42688	-915.28241	1367.30859	1388.36267	-883.2356	1190.20483	1390.0177	-1096.29321	1285.59155	1480.22327	-974.724	1396.42285	1226.8407	-1012.12073	1197.28467	1160.21741	-1038.87256	1086.9314	1153.91187	-1036.10474	935.74384	1136.17993	-988.69098	815.74048	1179.7124	-1051.49866	817.68091	1144.42883	-1020.45459	731.6839	1146.16541	-949.3197	1408.04883	1548.42334	-990.77795	1219.34448	1652.56934	-986.72784	1096.57385	1667.12061	-963.26862	978.15143	1677.34802	-900.04114	847.12128	1629.84973	-947.27814	841.17511	1677.81079	-903.90558	769.15283	1668.98169	-894.02747	964.20746	1302.43286	-900.00079	957.44537	1521.84082	-1053.41418	992.45374	1330.5553	-1050.74329	982.49884	1498.07202	-951.88409	657.8634	1233.84192	-947.81415	492.90924	1253.51379	-958.65027	236.79301	1265.59167	-941.04425	67.49446	1315.55811	-978.85522	53.70922	1362.34778	-793.99988	40.96604	1316.17163	-948.64124	618.01141	1587.87781	-935.05267	491.74301	1580.99023	-1130.98499	328.47678	1574.02002	-1283.00098	227.13416	1529.40698	-1317.28796	242.48871	1479.10352	-1247.65271	73.96739	1549.42358	-993.66217	1695.78674	1382.5	NaN	NaN	NaN	NaN	NaN	NaN	NaN	NaN	NaN	NaN	NaN	NaN	NaN	NaN	NaN
6	0.05	-885.02332	1658.48071	1321.20251	-881.28796	1651.49841	1452.66797	-1017.34894	1600.31995	1325.6676	-1011.92944	1598.6366	1454.86621	-1014.34784	1449.44958	1387.13208	-1063.21814	1122.81311	1413.79797	-906.55872	1367.83411	1387.80627	-874.67169	1190.64063	1389.36499	-1088.27576	1285.8584	1477.82727	-964.69427	1396.50928	1225.67627	-998.88177	1196.81177	1158.06616	-1023.96027	1086.01123	1151.19788	-1018.36896	935.02686	1133.16602	-968.7804	815.97839	1176.69019	-1030.84961	816.40796	1141.47949	-998.52283	731.50122	1142.71448	-941.52356	1408.13538	1547.74548	-985.33197	1219.4054	1651.18225	-981.79706	1096.37048	1665.55225	-960.34674	977.55511	1676.10242	-899.2981	845.17834	1629.94141	-946.91858	840.23865	1677.16199	-904.60077	767.70343	1669.39185	-885.13055	964.71954	1301.85718	-891.72058	957.99567	1521.37964	-1044.99329	993.22797	1329.63904	-1042.45959	982.71625	1497.34106	-945.79199	658.49414	1234.78247	-943.11768	493.14865	1253.24878	-956.75677	237.08253	1265.78821	-940.96985	67.56262	1315.67139	-978.93738	53.72198	1362.32178	-793.95966	40.7545	1316.25256	-935.63403	619.08588	1587.67517	-918.26398	493.34702	1580.95593	-1113.04724	330.39609	1572.9718	-1263.90918	227.81094	1527.90332	-1299.22473	241.66681	1477.4353	-1223.33508	76.58669	1548.71204	-985.27118	1696.15527	1381.44458	NaN	NaN	NaN	NaN	NaN	NaN	NaN	NaN	NaN	NaN	NaN	NaN	NaN	NaN	NaN
7	0.06	-876.33392	1659.10364	1320.46179	-872.97815	1652.05078	1451.9436	-1008.69275	1600.73047	1324.70508	-1003.45197	1599.0636	1453.91675	-1005.73657	1450.03406	1385.76318	-1054.73743	1123.52795	1412.31348	-898.18976	1368.24927	1387.11365	-866.28931	1191.08752	1388.72729	-1080.27173	1286.36084	1475.8147	-954.76953	1396.76355	1224.57031	-985.33203	1196.4657	1156.36804	-1008.89276	1085.30212	1148.59155	-1000.32715	934.52472	1130.24805	-948.69006	816.4408	1173.90161	-1010.56866	815.64124	1138.36218	-976.2663	731.60547	1139.19568	-933.86737	1408.39893	1547.08447	-979.7254	1219.52747	1649.67017	-977.00818	1096.42847	1663.79199	-957.66791	977.12445	1674.83948	-898.64752	843.43079	1629.95642	-947.00409	839.57361	1676.43176	-905.7738	766.50012	1669.94934	-876.50281	964.9621	1301.28088	-883.86072	958.42914	1520.58215	-1036.27185	993.93658	1328.81079	-1034.12769	983.18292	1496.61169	-938.97571	658.83575	1234.00012	-938.48523	493.35129	1253.16003	-955.48694	237.3477	1265.54993	-940.8161	67.66122	1315.84167	-978.93439	53.97894	1362.34985	-793.83679	40.59595	1316.42529	-922.45618	620.56244	1587.59717	-901.52936	495.38336	1580.77698	-1094.47095	332.04172	1571.66858	-1244.11133	226.99544	1526.61829	-1280.4386	239.58572	1476.22778	-1197.56482	78.32497	1547.89722	-976.8573	1696.62207	1380.54724	NaN	NaN	NaN	NaN	NaN	NaN	NaN	NaN	NaN	NaN	NaN	NaN	NaN	NaN	NaN
